# xmcd CD database file
# Copyright (C) 1993-1998 Ti Kan
#
# Track frame offsets:
#	150
#	29385
#	47178
#	72705
#	101878
#	115620
#
# Disc length: 2077 seconds
#
# Revision: 1
# Processed by: cddbd v1.4b41PL1 Copyright (c) Steve Scherf et al.
# Submitted via: CDValet v3.31 - Copyright (c) 1997 Greg Leichner
#
DISCID=54081b06
DTITLE=Cuby and Blizzards - Old Times - Good Times
DYEAR=1900
DGENRE=
TTITLE0=Something Inside Me
TTITLE1=Stepping In My Shoes
TTITLE2=Country Boy
TTITLE3=It's My Own Fault
TTITLE4=Downhearted Womam
TTITLE5=Here I'm Standing
EXTD=
EXTT0=
EXTT1=
EXTT2=
EXTT3=
EXTT4=
EXTT5=
PLAYORDER=
